<?xml version="1.0" encoding="UTF-8"?>
<svg id="Capa_1" data-name="Capa 1" xmlns="http://www.w3.org/2000/svg" viewBox="0 0 75.01 74.2">
  <path d="M64.07,10.82C56.72,3.61,47.86,0,37.51,0S18.32,3.61,11.03,10.82c-.92.91-1.78,1.84-2.58,2.79C2.9,20.21.08,27.9,0,36.7c0,.03.01.07,0,.1v.05c.01.05.01.11.01.16,0,.07,0,.16-.01.24v.13c.06,8.86,2.88,16.57,8.45,23.15.8.94,1.66,1.86,2.58,2.76,7.29,7.27,16.12,10.91,26.48,10.91s19.21-3.64,26.56-10.91c7.3-7.21,10.94-15.94,10.94-26.19s-3.64-19-10.94-26.28ZM53.04,51.2c-3.86,4.3-9.01,6.45-15.44,6.45s-11.65-2.15-15.45-6.45c-3.43-3.88-5.14-8.61-5.14-14.19s1.71-10.3,5.14-14.18c3.8-4.31,8.92-6.46,15.36-6.46s11.67,2.15,15.53,6.46c3.43,3.88,5.15,8.6,5.15,14.18s-1.72,10.31-5.15,14.19Z" fill="#e16e0e" stroke-width="0"/>
</svg>