<svg
      id="logos"
      data-name="logos"
      xmlns="http://www.w3.org/2000/svg"
      viewBox="0 0 265.23 173.75"
    >
      <path
        d="M204.39,68.26c-7.35-7.21-16.21-10.82-26.56-10.82s-19.19,3.61-26.48,10.82c-.91.91-1.77,1.84-2.57,2.79-5.62,6.67-8.44,14.47-8.46,23.4v.09c0,8.97,2.82,16.77,8.46,23.42.8.95,1.66,1.87,2.57,2.77,7.29,7.27,16.12,10.91,26.48,10.91s19.21-3.64,26.56-10.91c7.3-7.22,10.94-15.94,10.94-26.19s-3.64-19-10.94-26.28ZM193.36,108.63c-3.86,4.31-9.01,6.46-15.44,6.46s-11.65-2.15-15.45-6.46c-3.43-3.87-5.14-8.6-5.14-14.18s1.71-10.3,5.14-14.18c3.8-4.31,8.92-6.46,15.36-6.46s11.67,2.15,15.53,6.46c3.43,3.88,5.15,8.6,5.15,14.18s-1.72,10.31-5.15,14.18Z"
        fill="#e16e0e"
        strokeWidth="0"
      />
      <path
        d="M90.17,120.72c-.9-.88-1.75-1.79-2.53-2.72-5.68-6.66-8.51-14.47-8.51-23.47v-.09c.02-8.95,2.85-16.77,8.51-23.45.78-.94,1.63-1.85,2.53-2.74,7.29-7.21,16.11-10.82,26.47-10.82s19.21,3.61,26.57,10.82c.91.91,1.76,1.84,2.57,2.79-5.62,6.67-8.44,14.47-8.46,23.4,0-5.58-1.71-10.3-5.14-14.18-3.86-4.31-9.04-6.46-15.54-6.46s-11.55,2.15-15.35,6.46c-3.43,3.88-5.15,8.6-5.15,14.18v.09c.02,5.54,1.74,10.24,5.15,14.09,3.8,4.31,8.95,6.46,15.44,6.46s11.59-2.15,15.45-6.46c3.41-3.85,5.12-8.55,5.14-14.09,0,8.97,2.82,16.77,8.46,23.42-.81.95-1.66,1.87-2.57,2.77-5.68,5.61-12.25,9.06-19.71,10.34,7.98,2.48,13.47,4.74,16.48,6.77,5.09,3.45,7.63,8.15,7.63,14.09,0,6.67-2.91,12.03-8.73,16.09-5.27,3.64-11.74,5.55-19.4,5.73-7.66.12-14.25-1.54-19.76-5-1.36-.85-2.58-1.78-3.66-2.78-5.04-4.68-1.94-13.11,4.93-13.37l.65-.03c2.48-.09,4.72,1.24,6.07,3.32.68,1.03,1.66,1.92,2.95,2.68,2.32,1.39,5.11,2.06,8.36,2s5.98-.82,8.18-2.27c2.45-1.58,3.68-3.7,3.68-6.37,0-2.91-4.6-5.79-13.79-8.64-8.46-2.66-14.31-5.09-17.56-7.27-4.96-3.43-7.58-8.04-7.87-13.82"
        fill="#e16e0e"
        strokeWidth="0"
      />
      <path
        d="M70.99,108.63c-3.8,4.31-8.95,6.46-15.45,6.46s-11.58-2.15-15.44-6.46c-3.43-3.87-5.15-8.6-5.15-14.18s1.72-10.3,5.15-14.18c3.86-4.31,9.04-6.46,15.53-6.46s11.56,2.15,15.36,6.46c3.43,3.88,5.14,8.6,5.14,14.18.02-8.95,2.85-16.77,8.51-23.45-.79-.94-1.63-1.85-2.53-2.74-7.29-7.21-16.12-10.82-26.48-10.82s-19.21,3.61-26.56,10.82c-7.3,7.28-10.94,16.04-10.94,26.28s3.64,18.97,10.94,26.19c7.35,7.27,16.21,10.91,26.56,10.91s19.19-3.64,26.48-10.91c.9-.88,1.74-1.79,2.53-2.72-5.68-6.66-8.51-14.47-8.51-23.47-.02,5.54-1.73,10.24-5.14,14.09Z"
        fill="#e16e0e"
        strokeWidth="0"
      />
      <path
        d="M257.6,96.02c-3.07-2.06-8.7-4.36-16.92-6.91-4.9-1.58-8.3-2.85-10.2-3.82-3.06-1.7-4.6-3.7-4.6-6,0-2.61,1.02-4.73,3.04-6.37,1.84-1.45,4.13-2.21,6.89-2.27,2.7-.12,5.06.46,7.08,1.73,1.07.66,1.93,1.45,2.57,2.37,1.55,2.22,4.21,3.38,6.9,3.15h.07c6.71-.6,9.46-8.89,4.47-13.42-1.05-.96-2.23-1.84-3.53-2.65-5.27-3.21-11.43-4.67-18.48-4.36-7.05.3-12.96,2.3-17.74,6-3.14,2.39-5.35,5.23-6.62,8.52,5.19,6.53,7.79,14.12,7.79,22.76v.18c3.4,1.99,8.86,4.17,16.39,6.55,9.19,2.85,13.79,5.72,13.79,8.63,0,2.67-1.23,4.79-3.68,6.37-2.21,1.45-4.93,2.21-8.18,2.27s-6.04-.6-8.37-2c-1.28-.76-2.26-1.65-2.94-2.68-1.36-2.08-3.59-3.41-6.07-3.31l-.65.02c-1.97.08-3.63.83-4.88,1.96-.99.91-1.71,2.05-2.13,3.3,0,.01,0,.02,0,.02-.89,2.67-.36,5.82,2.09,8.09,1.08,1,2.29,1.93,3.65,2.79,5.52,3.45,12.11,5.12,19.77,5,7.66-.19,14.12-2.09,19.4-5.73,5.82-4.06,8.73-9.43,8.73-16.1,0-5.94-2.55-10.63-7.63-14.09Z"
        fill="#297a81"
        strokeWidth="0"
      />
      <path
        d="M16.64,5.3c0-2.92-2.37-5.3-5.29-5.3h-6.05C2.38,0,0,2.38,0,5.3v121.25c0,2.93,2.38,5.3,5.3,5.3h6.05c2.92,0,5.29-2.37,5.29-5.3v-20.95c-1.02-3.4-1.53-7.02-1.53-10.85s.51-7.45,1.53-10.87V5.3Z"
        fill="#297a81"
        strokeWidth="0"
      />
      <path
        d="M19.64,83.88v21.72c-1.02-3.4-1.53-7.02-1.53-10.85s.51-7.45,1.53-10.87Z"
        fill="#e16e0e"
        strokeWidth="0"
      />
    </svg>